<svg version="1.1" xmlns="http://www.w3.org/2000/svg" xmlns:xlink="http://www.w3.org/1999/xlink" width="844" height="572"><defs/><g><text fill="#eeeeee" stroke="none" font-family="Arial" font-size="24px" font-style="normal" font-weight="normal" text-decoration="none" x="0" y="0">UNREGISTERED</text><text fill="#eeeeee" stroke="none" font-family="Arial" font-size="24px" font-style="normal" font-weight="normal" text-decoration="none" x="0" y="30">UNREGISTERED</text><text fill="#eeeeee" stroke="none" font-family="Arial" font-size="24px" font-style="normal" font-weight="normal" text-decoration="none" x="0" y="60">UNREGISTERED</text><text fill="#eeeeee" stroke="none" font-family="Arial" font-size="24px" font-style="normal" font-weight="normal" text-decoration="none" x="0" y="90">UNREGISTERED</text><text fill="#eeeeee" stroke="none" font-family="Arial" font-size="24px" font-style="normal" font-weight="normal" text-decoration="none" x="0" y="120">UNREGISTERED</text><text fill="#eeeeee" stroke="none" font-family="Arial" font-size="24px" font-style="normal" font-weight="normal" text-decoration="none" x="0" y="150">UNREGISTERED</text><text fill="#eeeeee" stroke="none" font-family="Arial" font-size="24px" font-style="normal" font-weight="normal" text-decoration="none" x="0" y="180">UNREGISTERED</text><text fill="#eeeeee" stroke="none" font-family="Arial" font-size="24px" font-style="normal" font-weight="normal" text-decoration="none" x="0" y="210">UNREGISTERED</text><text fill="#eeeeee" stroke="none" font-family="Arial" font-size="24px" font-style="normal" font-weight="normal" text-decoration="none" x="0" y="240">UNREGISTERED</text><text fill="#eeeeee" stroke="none" font-family="Arial" font-size="24px" font-style="normal" font-weight="normal" text-decoration="none" x="0" y="270">UNREGISTERED</text><text fill="#eeeeee" stroke="none" font-family="Arial" font-size="24px" font-style="normal" font-weight="normal" text-decoration="none" x="0" y="300">UNREGISTERED</text><text fill="#eeeeee" stroke="none" font-family="Arial" font-size="24px" font-style="normal" font-weight="normal" text-decoration="none" x="0" y="330">UNREGISTERED</text><text fill="#eeeeee" stroke="none" font-family="Arial" font-size="24px" font-style="normal" font-weight="normal" text-decoration="none" x="0" y="360">UNREGISTERED</text><text fill="#eeeeee" stroke="none" font-family="Arial" font-size="24px" font-style="normal" font-weight="normal" text-decoration="none" x="0" y="390">UNREGISTERED</text><text fill="#eeeeee" stroke="none" font-family="Arial" font-size="24px" font-style="normal" font-weight="normal" text-decoration="none" x="0" y="420">UNREGISTERED</text><text fill="#eeeeee" stroke="none" font-family="Arial" font-size="24px" font-style="normal" font-weight="normal" text-decoration="none" x="0" y="450">UNREGISTERED</text><text fill="#eeeeee" stroke="none" font-family="Arial" font-size="24px" font-style="normal" font-weight="normal" text-decoration="none" x="0" y="480">UNREGISTERED</text><text fill="#eeeeee" stroke="none" font-family="Arial" font-size="24px" font-style="normal" font-weight="normal" text-decoration="none" x="0" y="510">UNREGISTERED</text><text fill="#eeeeee" stroke="none" font-family="Arial" font-size="24px" font-style="normal" font-weight="normal" text-decoration="none" x="0" y="540">UNREGISTERED</text><text fill="#eeeeee" stroke="none" font-family="Arial" font-size="24px" font-style="normal" font-weight="normal" text-decoration="none" x="0" y="570">UNREGISTERED</text><text fill="#eeeeee" stroke="none" font-family="Arial" font-size="24px" font-style="normal" font-weight="normal" text-decoration="none" x="200" y="0">UNREGISTERED</text><text fill="#eeeeee" stroke="none" font-family="Arial" font-size="24px" font-style="normal" font-weight="normal" text-decoration="none" x="200" y="30">UNREGISTERED</text><text fill="#eeeeee" stroke="none" font-family="Arial" font-size="24px" font-style="normal" font-weight="normal" text-decoration="none" x="200" y="60">UNREGISTERED</text><text fill="#eeeeee" stroke="none" font-family="Arial" font-size="24px" font-style="normal" font-weight="normal" text-decoration="none" x="200" y="90">UNREGISTERED</text><text fill="#eeeeee" stroke="none" font-family="Arial" font-size="24px" font-style="normal" font-weight="normal" text-decoration="none" x="200" y="120">UNREGISTERED</text><text fill="#eeeeee" stroke="none" font-family="Arial" font-size="24px" font-style="normal" font-weight="normal" text-decoration="none" x="200" y="150">UNREGISTERED</text><text fill="#eeeeee" stroke="none" font-family="Arial" font-size="24px" font-style="normal" font-weight="normal" text-decoration="none" x="200" y="180">UNREGISTERED</text><text fill="#eeeeee" stroke="none" font-family="Arial" font-size="24px" font-style="normal" font-weight="normal" text-decoration="none" x="200" y="210">UNREGISTERED</text><text fill="#eeeeee" stroke="none" font-family="Arial" font-size="24px" font-style="normal" font-weight="normal" text-decoration="none" x="200" y="240">UNREGISTERED</text><text fill="#eeeeee" stroke="none" font-family="Arial" font-size="24px" font-style="normal" font-weight="normal" text-decoration="none" x="200" y="270">UNREGISTERED</text><text fill="#eeeeee" stroke="none" font-family="Arial" font-size="24px" font-style="normal" font-weight="normal" text-decoration="none" x="200" y="300">UNREGISTERED</text><text fill="#eeeeee" stroke="none" font-family="Arial" font-size="24px" font-style="normal" font-weight="normal" text-decoration="none" x="200" y="330">UNREGISTERED</text><text fill="#eeeeee" stroke="none" font-family="Arial" font-size="24px" font-style="normal" font-weight="normal" text-decoration="none" x="200" y="360">UNREGISTERED</text><text fill="#eeeeee" stroke="none" font-family="Arial" font-size="24px" font-style="normal" font-weight="normal" text-decoration="none" x="200" y="390">UNREGISTERED</text><text fill="#eeeeee" stroke="none" font-family="Arial" font-size="24px" font-style="normal" font-weight="normal" text-decoration="none" x="200" y="420">UNREGISTERED</text><text fill="#eeeeee" stroke="none" font-family="Arial" font-size="24px" font-style="normal" font-weight="normal" text-decoration="none" x="200" y="450">UNREGISTERED</text><text fill="#eeeeee" stroke="none" font-family="Arial" font-size="24px" font-style="normal" font-weight="normal" text-decoration="none" x="200" y="480">UNREGISTERED</text><text fill="#eeeeee" stroke="none" font-family="Arial" font-size="24px" font-style="normal" font-weight="normal" text-decoration="none" x="200" y="510">UNREGISTERED</text><text fill="#eeeeee" stroke="none" font-family="Arial" font-size="24px" font-style="normal" font-weight="normal" text-decoration="none" x="200" y="540">UNREGISTERED</text><text fill="#eeeeee" stroke="none" font-family="Arial" font-size="24px" font-style="normal" font-weight="normal" text-decoration="none" x="200" y="570">UNREGISTERED</text><text fill="#eeeeee" stroke="none" font-family="Arial" font-size="24px" font-style="normal" font-weight="normal" text-decoration="none" x="400" y="0">UNREGISTERED</text><text fill="#eeeeee" stroke="none" font-family="Arial" font-size="24px" font-style="normal" font-weight="normal" text-decoration="none" x="400" y="30">UNREGISTERED</text><text fill="#eeeeee" stroke="none" font-family="Arial" font-size="24px" font-style="normal" font-weight="normal" text-decoration="none" x="400" y="60">UNREGISTERED</text><text fill="#eeeeee" stroke="none" font-family="Arial" font-size="24px" font-style="normal" font-weight="normal" text-decoration="none" x="400" y="90">UNREGISTERED</text><text fill="#eeeeee" stroke="none" font-family="Arial" font-size="24px" font-style="normal" font-weight="normal" text-decoration="none" x="400" y="120">UNREGISTERED</text><text fill="#eeeeee" stroke="none" font-family="Arial" font-size="24px" font-style="normal" font-weight="normal" text-decoration="none" x="400" y="150">UNREGISTERED</text><text fill="#eeeeee" stroke="none" font-family="Arial" font-size="24px" font-style="normal" font-weight="normal" text-decoration="none" x="400" y="180">UNREGISTERED</text><text fill="#eeeeee" stroke="none" font-family="Arial" font-size="24px" font-style="normal" font-weight="normal" text-decoration="none" x="400" y="210">UNREGISTERED</text><text fill="#eeeeee" stroke="none" font-family="Arial" font-size="24px" font-style="normal" font-weight="normal" text-decoration="none" x="400" y="240">UNREGISTERED</text><text fill="#eeeeee" stroke="none" font-family="Arial" font-size="24px" font-style="normal" font-weight="normal" text-decoration="none" x="400" y="270">UNREGISTERED</text><text fill="#eeeeee" stroke="none" font-family="Arial" font-size="24px" font-style="normal" font-weight="normal" text-decoration="none" x="400" y="300">UNREGISTERED</text><text fill="#eeeeee" stroke="none" font-family="Arial" font-size="24px" font-style="normal" font-weight="normal" text-decoration="none" x="400" y="330">UNREGISTERED</text><text fill="#eeeeee" stroke="none" font-family="Arial" font-size="24px" font-style="normal" font-weight="normal" text-decoration="none" x="400" y="360">UNREGISTERED</text><text fill="#eeeeee" stroke="none" font-family="Arial" font-size="24px" font-style="normal" font-weight="normal" text-decoration="none" x="400" y="390">UNREGISTERED</text><text fill="#eeeeee" stroke="none" font-family="Arial" font-size="24px" font-style="normal" font-weight="normal" text-decoration="none" x="400" y="420">UNREGISTERED</text><text fill="#eeeeee" stroke="none" font-family="Arial" font-size="24px" font-style="normal" font-weight="normal" text-decoration="none" x="400" y="450">UNREGISTERED</text><text fill="#eeeeee" stroke="none" font-family="Arial" font-size="24px" font-style="normal" font-weight="normal" text-decoration="none" x="400" y="480">UNREGISTERED</text><text fill="#eeeeee" stroke="none" font-family="Arial" font-size="24px" font-style="normal" font-weight="normal" text-decoration="none" x="400" y="510">UNREGISTERED</text><text fill="#eeeeee" stroke="none" font-family="Arial" font-size="24px" font-style="normal" font-weight="normal" text-decoration="none" x="400" y="540">UNREGISTERED</text><text fill="#eeeeee" stroke="none" font-family="Arial" font-size="24px" font-style="normal" font-weight="normal" text-decoration="none" x="400" y="570">UNREGISTERED</text><text fill="#eeeeee" stroke="none" font-family="Arial" font-size="24px" font-style="normal" font-weight="normal" text-decoration="none" x="600" y="0">UNREGISTERED</text><text fill="#eeeeee" stroke="none" font-family="Arial" font-size="24px" font-style="normal" font-weight="normal" text-decoration="none" x="600" y="30">UNREGISTERED</text><text fill="#eeeeee" stroke="none" font-family="Arial" font-size="24px" font-style="normal" font-weight="normal" text-decoration="none" x="600" y="60">UNREGISTERED</text><text fill="#eeeeee" stroke="none" font-family="Arial" font-size="24px" font-style="normal" font-weight="normal" text-decoration="none" x="600" y="90">UNREGISTERED</text><text fill="#eeeeee" stroke="none" font-family="Arial" font-size="24px" font-style="normal" font-weight="normal" text-decoration="none" x="600" y="120">UNREGISTERED</text><text fill="#eeeeee" stroke="none" font-family="Arial" font-size="24px" font-style="normal" font-weight="normal" text-decoration="none" x="600" y="150">UNREGISTERED</text><text fill="#eeeeee" stroke="none" font-family="Arial" font-size="24px" font-style="normal" font-weight="normal" text-decoration="none" x="600" y="180">UNREGISTERED</text><text fill="#eeeeee" stroke="none" font-family="Arial" font-size="24px" font-style="normal" font-weight="normal" text-decoration="none" x="600" y="210">UNREGISTERED</text><text fill="#eeeeee" stroke="none" font-family="Arial" font-size="24px" font-style="normal" font-weight="normal" text-decoration="none" x="600" y="240">UNREGISTERED</text><text fill="#eeeeee" stroke="none" font-family="Arial" font-size="24px" font-style="normal" font-weight="normal" text-decoration="none" x="600" y="270">UNREGISTERED</text><text fill="#eeeeee" stroke="none" font-family="Arial" font-size="24px" font-style="normal" font-weight="normal" text-decoration="none" x="600" y="300">UNREGISTERED</text><text fill="#eeeeee" stroke="none" font-family="Arial" font-size="24px" font-style="normal" font-weight="normal" text-decoration="none" x="600" y="330">UNREGISTERED</text><text fill="#eeeeee" stroke="none" font-family="Arial" font-size="24px" font-style="normal" font-weight="normal" text-decoration="none" x="600" y="360">UNREGISTERED</text><text fill="#eeeeee" stroke="none" font-family="Arial" font-size="24px" font-style="normal" font-weight="normal" text-decoration="none" x="600" y="390">UNREGISTERED</text><text fill="#eeeeee" stroke="none" font-family="Arial" font-size="24px" font-style="normal" font-weight="normal" text-decoration="none" x="600" y="420">UNREGISTERED</text><text fill="#eeeeee" stroke="none" font-family="Arial" font-size="24px" font-style="normal" font-weight="normal" text-decoration="none" x="600" y="450">UNREGISTERED</text><text fill="#eeeeee" stroke="none" font-family="Arial" font-size="24px" font-style="normal" font-weight="normal" text-decoration="none" x="600" y="480">UNREGISTERED</text><text fill="#eeeeee" stroke="none" font-family="Arial" font-size="24px" font-style="normal" font-weight="normal" text-decoration="none" x="600" y="510">UNREGISTERED</text><text fill="#eeeeee" stroke="none" font-family="Arial" font-size="24px" font-style="normal" font-weight="normal" text-decoration="none" x="600" y="540">UNREGISTERED</text><text fill="#eeeeee" stroke="none" font-family="Arial" font-size="24px" font-style="normal" font-weight="normal" text-decoration="none" x="600" y="570">UNREGISTERED</text><text fill="#eeeeee" stroke="none" font-family="Arial" font-size="24px" font-style="normal" font-weight="normal" text-decoration="none" x="800" y="0">UNREGISTERED</text><text fill="#eeeeee" stroke="none" font-family="Arial" font-size="24px" font-style="normal" font-weight="normal" text-decoration="none" x="800" y="30">UNREGISTERED</text><text fill="#eeeeee" stroke="none" font-family="Arial" font-size="24px" font-style="normal" font-weight="normal" text-decoration="none" x="800" y="60">UNREGISTERED</text><text fill="#eeeeee" stroke="none" font-family="Arial" font-size="24px" font-style="normal" font-weight="normal" text-decoration="none" x="800" y="90">UNREGISTERED</text><text fill="#eeeeee" stroke="none" font-family="Arial" font-size="24px" font-style="normal" font-weight="normal" text-decoration="none" x="800" y="120">UNREGISTERED</text><text fill="#eeeeee" stroke="none" font-family="Arial" font-size="24px" font-style="normal" font-weight="normal" text-decoration="none" x="800" y="150">UNREGISTERED</text><text fill="#eeeeee" stroke="none" font-family="Arial" font-size="24px" font-style="normal" font-weight="normal" text-decoration="none" x="800" y="180">UNREGISTERED</text><text fill="#eeeeee" stroke="none" font-family="Arial" font-size="24px" font-style="normal" font-weight="normal" text-decoration="none" x="800" y="210">UNREGISTERED</text><text fill="#eeeeee" stroke="none" font-family="Arial" font-size="24px" font-style="normal" font-weight="normal" text-decoration="none" x="800" y="240">UNREGISTERED</text><text fill="#eeeeee" stroke="none" font-family="Arial" font-size="24px" font-style="normal" font-weight="normal" text-decoration="none" x="800" y="270">UNREGISTERED</text><text fill="#eeeeee" stroke="none" font-family="Arial" font-size="24px" font-style="normal" font-weight="normal" text-decoration="none" x="800" y="300">UNREGISTERED</text><text fill="#eeeeee" stroke="none" font-family="Arial" font-size="24px" font-style="normal" font-weight="normal" text-decoration="none" x="800" y="330">UNREGISTERED</text><text fill="#eeeeee" stroke="none" font-family="Arial" font-size="24px" font-style="normal" font-weight="normal" text-decoration="none" x="800" y="360">UNREGISTERED</text><text fill="#eeeeee" stroke="none" font-family="Arial" font-size="24px" font-style="normal" font-weight="normal" text-decoration="none" x="800" y="390">UNREGISTERED</text><text fill="#eeeeee" stroke="none" font-family="Arial" font-size="24px" font-style="normal" font-weight="normal" text-decoration="none" x="800" y="420">UNREGISTERED</text><text fill="#eeeeee" stroke="none" font-family="Arial" font-size="24px" font-style="normal" font-weight="normal" text-decoration="none" x="800" y="450">UNREGISTERED</text><text fill="#eeeeee" stroke="none" font-family="Arial" font-size="24px" font-style="normal" font-weight="normal" text-decoration="none" x="800" y="480">UNREGISTERED</text><text fill="#eeeeee" stroke="none" font-family="Arial" font-size="24px" font-style="normal" font-weight="normal" text-decoration="none" x="800" y="510">UNREGISTERED</text><text fill="#eeeeee" stroke="none" font-family="Arial" font-size="24px" font-style="normal" font-weight="normal" text-decoration="none" x="800" y="540">UNREGISTERED</text><text fill="#eeeeee" stroke="none" font-family="Arial" font-size="24px" font-style="normal" font-weight="normal" text-decoration="none" x="800" y="570">UNREGISTERED</text><g transform="translate(-166,-62) scale(1,1)"><rect fill="#C0C0C0" stroke="none" x="463" y="79" width="544" height="552" opacity="0.2"/></g><g transform="translate(-166,-62) scale(1,1)"><rect fill="#ffffff" stroke="none" x="456" y="72" width="544" height="552"/></g><g transform="translate(-166,-62) scale(1,1)"><path fill="none" stroke="#000000" d="M 456 72 L 1000 72 L 1000 624 L 456 624 L 456 72 Z Z" stroke-miterlimit="10"/></g><g transform="translate(-166,-62) scale(1,1)"><g><path fill="none" stroke="none"/><text fill="#000000" stroke="none" font-family="Roboto" font-size="16px" font-style="normal" font-weight="bold" text-decoration="none" x="649.1640625" y="94.5">Vehicle Rental System</text></g></g><g transform="translate(-166,-62) scale(1,1)"><path fill="#ffffff" stroke="none" d="M 200.34074680397728 425.68 C 200.34074680397728 420.886167936 204.22658912892274 417 209.02001953125 417 C 213.81344993357726 417 217.69929225852272 420.886167936 217.69929225852272 425.68 C 217.69929225852272 430.473832064 213.81344993357726 434.36 209.02001953125 434.36 C 204.22658912892274 434.36 200.34074680397728 430.473832064 200.34074680397728 425.68 Z"/></g><g transform="translate(-166,-62) scale(1,1)"><path fill="none" stroke="#000000" d="M 200.34074680397728 425.68 C 200.34074680397728 420.886167936 204.22658912892274 417 209.02001953125 417 C 213.81344993357726 417 217.69929225852272 420.886167936 217.69929225852272 425.68 C 217.69929225852272 430.473832064 213.81344993357726 434.36 209.02001953125 434.36 C 204.22658912892274 434.36 200.34074680397728 430.473832064 200.34074680397728 425.68 Z" stroke-miterlimit="10"/></g><g transform="translate(-166,-62) scale(1,1)"><path fill="none" stroke="#000000" d="M 209.02001953125 434.36 L 209.02001953125 451.64" stroke-miterlimit="10"/></g><g transform="translate(-166,-62) scale(1,1)"><path fill="none" stroke="#000000" d="M 199.83020134943183 440.84 L 218.20983771306817 440.84" stroke-miterlimit="10"/></g><g transform="translate(-166,-62) scale(1,1)"><path fill="none" stroke="#000000" d="M 209.02001953125 451.64 L 196.25638316761365 469" stroke-miterlimit="10"/></g><g transform="translate(-166,-62) scale(1,1)"><path fill="none" stroke="#000000" d="M 209.02001953125 451.64 L 221.78365589488635 469" stroke-miterlimit="10"/></g><g transform="translate(-166,-62) scale(1,1)"><g><path fill="none" stroke="none"/><text fill="#000000" stroke="none" font-family="Roboto" font-size="13px" font-style="normal" font-weight="bold" text-decoration="none" x="180.74755859375" y="489.5">Customer</text></g></g><g transform="translate(-166,-62) scale(1,1)"><path fill="#ffffff" stroke="none" d="M 199.46037571022728 241.68 C 199.46037571022728 236.886167936 203.34621803517274 233 208.1396484375 233 C 212.93307883982726 233 216.81892116477272 236.886167936 216.81892116477272 241.68 C 216.81892116477272 246.47383206400002 212.93307883982726 250.36 208.1396484375 250.36 C 203.34621803517274 250.36 199.46037571022728 246.47383206400002 199.46037571022728 241.68 Z"/></g><g transform="translate(-166,-62) scale(1,1)"><path fill="none" stroke="#000000" d="M 199.46037571022728 241.68 C 199.46037571022728 236.886167936 203.34621803517274 233 208.1396484375 233 C 212.93307883982726 233 216.81892116477272 236.886167936 216.81892116477272 241.68 C 216.81892116477272 246.47383206400002 212.93307883982726 250.36 208.1396484375 250.36 C 203.34621803517274 250.36 199.46037571022728 246.47383206400002 199.46037571022728 241.68 Z" stroke-miterlimit="10"/></g><g transform="translate(-166,-62) scale(1,1)"><path fill="none" stroke="#000000" d="M 208.1396484375 250.36 L 208.1396484375 267.64" stroke-miterlimit="10"/></g><g transform="translate(-166,-62) scale(1,1)"><path fill="none" stroke="#000000" d="M 198.94983025568183 256.84 L 217.32946661931817 256.84" stroke-miterlimit="10"/></g><g transform="translate(-166,-62) scale(1,1)"><path fill="none" stroke="#000000" d="M 208.1396484375 267.64 L 195.37601207386365 285" stroke-miterlimit="10"/></g><g transform="translate(-166,-62) scale(1,1)"><path fill="none" stroke="#000000" d="M 208.1396484375 267.64 L 220.90328480113635 285" stroke-miterlimit="10"/></g><g transform="translate(-166,-62) scale(1,1)"><g><path fill="none" stroke="none"/><text fill="#000000" stroke="none" font-family="Roboto" font-size="13px" font-style="normal" font-weight="bold" text-decoration="none" x="189.372802734375" y="305.5">Admin</text></g></g><g transform="translate(-166,-62) scale(1,1)"><path fill="#C0C0C0" stroke="none" d="M 831 576 C 831 566.6111584 857.1913392 559 889.5 559 C 921.8086608 559 948 566.6111584 948 576 C 948 585.3888416 921.8086608 593 889.5 593 C 857.1913392 593 831 585.3888416 831 576 Z" opacity="0.2"/></g><g transform="translate(-166,-62) scale(1,1)"><path fill="#d8fff8" stroke="none" d="M 824 569 C 824 559.6111584 850.1913392 552 882.5 552 C 914.8086608 552 941 559.6111584 941 569 C 941 578.3888416 914.8086608 586 882.5 586 C 850.1913392 586 824 578.3888416 824 569 Z"/></g><g transform="translate(-166,-62) scale(1,1)"><path fill="none" stroke="#000000" d="M 824 569 C 824 559.6111584 850.1913392 552 882.5 552 C 914.8086608 552 941 559.6111584 941 569 C 941 578.3888416 914.8086608 586 882.5 586 C 850.1913392 586 824 578.3888416 824 569 Z" stroke-miterlimit="10"/></g><g transform="translate(-166,-62) scale(1,1)"><g><path fill="none" stroke="none"/><text fill="#000000" stroke="none" font-family="Roboto" font-size="13px" font-style="normal" font-weight="bold" text-decoration="none" x="846.715087890625" y="576">Rent Vehicle</text></g></g><g transform="translate(-166,-62) scale(1,1)"><path fill="#C0C0C0" stroke="none" d="M 823 528 C 823 518.6111584 852.9969184 511 890 511 C 927.0030816 511 957 518.6111584 957 528 C 957 537.3888416 927.0030816 545 890 545 C 852.9969184 545 823 537.3888416 823 528 Z" opacity="0.2"/></g><g transform="translate(-166,-62) scale(1,1)"><path fill="#d8fff8" stroke="none" d="M 816 521 C 816 511.6111584 845.9969184 504 883 504 C 920.0030816 504 950 511.6111584 950 521 C 950 530.3888416 920.0030816 538 883 538 C 845.9969184 538 816 530.3888416 816 521 Z"/></g><g transform="translate(-166,-62) scale(1,1)"><path fill="none" stroke="#000000" d="M 816 521 C 816 511.6111584 845.9969184 504 883 504 C 920.0030816 504 950 511.6111584 950 521 C 950 530.3888416 920.0030816 538 883 538 C 845.9969184 538 816 530.3888416 816 521 Z" stroke-miterlimit="10"/></g><g transform="translate(-166,-62) scale(1,1)"><g><path fill="none" stroke="none"/><text fill="#000000" stroke="none" font-family="Roboto" font-size="13px" font-style="normal" font-weight="bold" text-decoration="none" x="841.432373046875" y="528">Return Vehicle</text></g></g><g transform="translate(-166,-62) scale(1,1)"><path fill="#C0C0C0" stroke="none" d="M 679 584 C 679 574.6111584 709.4446336 567 747 567 C 784.5553664 567 815 574.6111584 815 584 C 815 593.3888416 784.5553664 601 747 601 C 709.4446336 601 679 593.3888416 679 584 Z" opacity="0.2"/></g><g transform="translate(-166,-62) scale(1,1)"><path fill="#fff5d8" stroke="none" d="M 672 577 C 672 567.6111584 702.4446336 560 740 560 C 777.5553664 560 808 567.6111584 808 577 C 808 586.3888416 777.5553664 594 740 594 C 702.4446336 594 672 586.3888416 672 577 Z"/></g><g transform="translate(-166,-62) scale(1,1)"><path fill="none" stroke="#000000" d="M 672 577 C 672 567.6111584 702.4446336 560 740 560 C 777.5553664 560 808 567.6111584 808 577 C 808 586.3888416 777.5553664 594 740 594 C 702.4446336 594 672 586.3888416 672 577 Z" stroke-miterlimit="10"/></g><g transform="translate(-166,-62) scale(1,1)"><g><path fill="none" stroke="none"/><text fill="#000000" stroke="none" font-family="Roboto" font-size="13px" font-style="normal" font-weight="bold" text-decoration="none" x="697.0263671875" y="584">Make Payment</text></g></g><g transform="translate(-166,-62) scale(1,1)"><path fill="#C0C0C0" stroke="none" d="M 815 472 C 815 462.6111584 841.4151968 455 874 455 C 906.5848032 455 933 462.6111584 933 472 C 933 481.3888416 906.5848032 489 874 489 C 841.4151968 489 815 481.3888416 815 472 Z" opacity="0.2"/></g><g transform="translate(-166,-62) scale(1,1)"><path fill="#ffd8ff" stroke="none" d="M 808 465 C 808 455.6111584 834.4151968 448 867 448 C 899.5848032 448 926 455.6111584 926 465 C 926 474.3888416 899.5848032 482 867 482 C 834.4151968 482 808 474.3888416 808 465 Z"/></g><g transform="translate(-166,-62) scale(1,1)"><path fill="none" stroke="#000000" d="M 808 465 C 808 455.6111584 834.4151968 448 867 448 C 899.5848032 448 926 455.6111584 926 465 C 926 474.3888416 899.5848032 482 867 482 C 834.4151968 482 808 474.3888416 808 465 Z" stroke-miterlimit="10"/></g><g transform="translate(-166,-62) scale(1,1)"><g><path fill="none" stroke="none"/><text fill="#000000" stroke="none" font-family="Roboto" font-size="13px" font-style="normal" font-weight="bold" text-decoration="none" x="830.4755859375" y="472">Use Voucher</text></g></g><g transform="translate(-166,-62) scale(1,1)"><path fill="#C0C0C0" stroke="none" d="M 815 264 C 815 254.6111584 844.3253456 247 880.5 247 C 916.6746544 247 946 254.6111584 946 264 C 946 273.3888416 916.6746544 281 880.5 281 C 844.3253456 281 815 273.3888416 815 264 Z" opacity="0.2"/></g><g transform="translate(-166,-62) scale(1,1)"><path fill="#ffd8ff" stroke="none" d="M 808 257 C 808 247.6111584 837.3253456 240 873.5 240 C 909.6746544 240 939 247.6111584 939 257 C 939 266.3888416 909.6746544 274 873.5 274 C 837.3253456 274 808 266.3888416 808 257 Z"/></g><g transform="translate(-166,-62) scale(1,1)"><path fill="none" stroke="#000000" d="M 808 257 C 808 247.6111584 837.3253456 240 873.5 240 C 909.6746544 240 939 247.6111584 939 257 C 939 266.3888416 909.6746544 274 873.5 274 C 837.3253456 274 808 266.3888416 808 257 Z" stroke-miterlimit="10"/></g><g transform="translate(-166,-62) scale(1,1)"><g><path fill="none" stroke="none"/><text fill="#000000" stroke="none" font-family="Roboto" font-size="13px" font-style="normal" font-weight="bold" text-decoration="none" x="832.48779296875" y="264">Issue Voucher</text></g></g><g transform="translate(-166,-62) scale(1,1)"><path fill="#C0C0C0" stroke="none" d="M 519 168 C 519 158.6111584 547.4299152 151 582.5 151 C 617.5700848 151 646 158.6111584 646 168 C 646 177.3888416 617.5700848 185 582.5 185 C 547.4299152 185 519 177.3888416 519 168 Z" opacity="0.2"/></g><g transform="translate(-166,-62) scale(1,1)"><path fill="#ffd8d8" stroke="none" d="M 512 161 C 512 151.6111584 540.4299152 144 575.5 144 C 610.5700848 144 639 151.6111584 639 161 C 639 170.3888416 610.5700848 178 575.5 178 C 540.4299152 178 512 170.3888416 512 161 Z"/></g><g transform="translate(-166,-62) scale(1,1)"><path fill="none" stroke="#000000" d="M 512 161 C 512 151.6111584 540.4299152 144 575.5 144 C 610.5700848 144 639 151.6111584 639 161 C 639 170.3888416 610.5700848 178 575.5 178 C 540.4299152 178 512 170.3888416 512 161 Z" stroke-miterlimit="10"/></g><g transform="translate(-166,-62) scale(1,1)"><g><path fill="none" stroke="none"/><text fill="#000000" stroke="none" font-family="Roboto" font-size="13px" font-style="normal" font-weight="bold" text-decoration="none" x="535.646240234375" y="168">Issue Demerit</text></g></g><g transform="translate(-166,-62) scale(1,1)"><path fill="#C0C0C0" stroke="none" d="M 615 368 C 615 358.6111584 652.3842192 351 698.5 351 C 744.6157808 351 782 358.6111584 782 368 C 782 377.3888416 744.6157808 385 698.5 385 C 652.3842192 385 615 377.3888416 615 368 Z" opacity="0.2"/></g><g transform="translate(-166,-62) scale(1,1)"><path fill="#d8e5ff" stroke="none" d="M 608 361 C 608 351.6111584 645.3842192 344 691.5 344 C 737.6157808 344 775 351.6111584 775 361 C 775 370.3888416 737.6157808 378 691.5 378 C 645.3842192 378 608 370.3888416 608 361 Z"/></g><g transform="translate(-166,-62) scale(1,1)"><path fill="none" stroke="#000000" d="M 608 361 C 608 351.6111584 645.3842192 344 691.5 344 C 737.6157808 344 775 351.6111584 775 361 C 775 370.3888416 737.6157808 378 691.5 378 C 645.3842192 378 608 370.3888416 608 361 Z" stroke-miterlimit="10"/></g><g transform="translate(-166,-62) scale(1,1)"><g><path fill="none" stroke="none"/><text fill="#000000" stroke="none" font-family="Roboto" font-size="13px" font-style="normal" font-weight="bold" text-decoration="none" x="637.83056640625" y="368">Register Customer</text></g></g><g transform="translate(-166,-62) scale(1,1)"><path fill="#C0C0C0" stroke="none" d="M 511 584 C 511 574.6111584 537.862912 567 571 567 C 604.137088 567 631 574.6111584 631 584 C 631 593.3888416 604.137088 601 571 601 C 537.862912 601 511 593.3888416 511 584 Z" opacity="0.2"/></g><g transform="translate(-166,-62) scale(1,1)"><path fill="#fff5d8" stroke="none" d="M 504 577 C 504 567.6111584 530.862912 560 564 560 C 597.137088 560 624 567.6111584 624 577 C 624 586.3888416 597.137088 594 564 594 C 530.862912 594 504 586.3888416 504 577 Z"/></g><g transform="translate(-166,-62) scale(1,1)"><path fill="none" stroke="#000000" d="M 504 577 C 504 567.6111584 530.862912 560 564 560 C 597.137088 560 624 567.6111584 624 577 C 624 586.3888416 597.137088 594 564 594 C 530.862912 594 504 586.3888416 504 577 Z" stroke-miterlimit="10"/></g><g transform="translate(-166,-62) scale(1,1)"><g><path fill="none" stroke="none"/><text fill="#000000" stroke="none" font-family="Roboto" font-size="13px" font-style="normal" font-weight="bold" text-decoration="none" x="526.323486328125" y="584">Topup Wallet</text></g></g><g transform="translate(-166,-62) scale(1,1)"><path fill="#C0C0C0" stroke="none" d="M 695 176 C 695 166.6111584 729.0263552 159 771 159 C 812.9736448 159 847 166.6111584 847 176 C 847 185.3888416 812.9736448 193 771 193 C 729.0263552 193 695 185.3888416 695 176 Z" opacity="0.2"/></g><g transform="translate(-166,-62) scale(1,1)"><path fill="#d8fff8" stroke="none" d="M 688 169 C 688 159.6111584 722.0263552 152 764 152 C 805.9736448 152 840 159.6111584 840 169 C 840 178.3888416 805.9736448 186 764 186 C 722.0263552 186 688 178.3888416 688 169 Z"/></g><g transform="translate(-166,-62) scale(1,1)"><path fill="none" stroke="#000000" d="M 688 169 C 688 159.6111584 722.0263552 152 764 152 C 805.9736448 152 840 159.6111584 840 169 C 840 178.3888416 805.9736448 186 764 186 C 722.0263552 186 688 178.3888416 688 169 Z" stroke-miterlimit="10"/></g><g transform="translate(-166,-62) scale(1,1)"><g><path fill="none" stroke="none"/><text fill="#000000" stroke="none" font-family="Roboto" font-size="13px" font-style="normal" font-weight="bold" text-decoration="none" x="715.227783203125" y="176">Add New Vehicle</text></g></g><g transform="translate(-166,-62) scale(1,1)"><path fill="#C0C0C0" stroke="none" d="M 767 216 C 767 206.6111584 799.459352 199 839.5 199 C 879.540648 199 912 206.6111584 912 216 C 912 225.3888416 879.540648 233 839.5 233 C 799.459352 233 767 225.3888416 767 216 Z" opacity="0.2"/></g><g transform="translate(-166,-62) scale(1,1)"><path fill="#d8fff8" stroke="none" d="M 760 209 C 760 199.6111584 792.459352 192 832.5 192 C 872.540648 192 905 199.6111584 905 209 C 905 218.3888416 872.540648 226 832.5 226 C 792.459352 226 760 218.3888416 760 209 Z"/></g><g transform="translate(-166,-62) scale(1,1)"><path fill="none" stroke="#000000" d="M 760 209 C 760 199.6111584 792.459352 192 832.5 192 C 872.540648 192 905 199.6111584 905 209 C 905 218.3888416 872.540648 226 832.5 226 C 792.459352 226 760 218.3888416 760 209 Z" stroke-miterlimit="10"/></g><g transform="translate(-166,-62) scale(1,1)"><g><path fill="none" stroke="none"/><text fill="#000000" stroke="none" font-family="Roboto" font-size="13px" font-style="normal" font-weight="bold" text-decoration="none" x="786.517578125" y="216">Remove Vehicle</text></g></g><g transform="translate(-166,-62) scale(1,1)"><path fill="#C0C0C0" stroke="none" d="M 583 440 C 583 430.6111584 604.4903296 423 631 423 C 657.5096704 423 679 430.6111584 679 440 C 679 449.3888416 657.5096704 457 631 457 C 604.4903296 457 583 449.3888416 583 440 Z" opacity="0.2"/></g><g transform="translate(-166,-62) scale(1,1)"><path fill="#d8e5ff" stroke="none" d="M 576 433 C 576 423.6111584 597.4903296 416 624 416 C 650.5096704 416 672 423.6111584 672 433 C 672 442.3888416 650.5096704 450 624 450 C 597.4903296 450 576 442.3888416 576 433 Z"/></g><g transform="translate(-166,-62) scale(1,1)"><path fill="none" stroke="#000000" d="M 576 433 C 576 423.6111584 597.4903296 416 624 416 C 650.5096704 416 672 423.6111584 672 433 C 672 442.3888416 650.5096704 450 624 450 C 597.4903296 450 576 442.3888416 576 433 Z" stroke-miterlimit="10"/></g><g transform="translate(-166,-62) scale(1,1)"><g><path fill="none" stroke="none"/><text fill="#000000" stroke="none" font-family="Roboto" font-size="13px" font-style="normal" font-weight="bold" text-decoration="none" x="607.98486328125" y="440">Login</text></g></g><g transform="translate(-166,-62) scale(1,1)"><path fill="none" stroke="#000000" d="M 233 281 L 578 415" stroke-miterlimit="10"/></g><g transform="translate(-166,-62) scale(1,1)"><path fill="none" stroke="#000000" d="M 243 453 L 575 436" stroke-miterlimit="10"/></g><g transform="translate(-166,-62) scale(1,1)"><path fill="none" stroke="#000000" d="M 233 276 L 607 345" stroke-miterlimit="10"/></g><g transform="translate(-166,-62) scale(1,1)"><path fill="none" stroke="#000000" d="M 233 263 L 515 179" stroke-miterlimit="10"/></g><g transform="translate(-166,-62) scale(1,1)"><path fill="none" stroke="#000000" d="M 233 266 L 687 183" stroke-miterlimit="10"/></g><g transform="translate(-166,-62) scale(1,1)"><path fill="none" stroke="#000000" d="M 233 268 L 759 216" stroke-miterlimit="10"/></g><g transform="translate(-166,-62) scale(1,1)"><path fill="none" stroke="#000000" d="M 233 270 L 807 258" stroke-miterlimit="10"/></g><g transform="translate(-166,-62) scale(1,1)"><path fill="#C0C0C0" stroke="none" d="M 567 304 C 567 294.6111584 596.101488 287 632 287 C 667.898512 287 697 294.6111584 697 304 C 697 313.3888416 667.898512 321 632 321 C 596.101488 321 567 313.3888416 567 304 Z" opacity="0.2"/></g><g transform="translate(-166,-62) scale(1,1)"><path fill="#d8e5ff" stroke="none" d="M 560 297 C 560 287.6111584 589.101488 280 625 280 C 660.898512 280 690 287.6111584 690 297 C 690 306.3888416 660.898512 314 625 314 C 589.101488 314 560 306.3888416 560 297 Z"/></g><g transform="translate(-166,-62) scale(1,1)"><path fill="none" stroke="#000000" d="M 560 297 C 560 287.6111584 589.101488 280 625 280 C 660.898512 280 690 287.6111584 690 297 C 690 306.3888416 660.898512 314 625 314 C 589.101488 314 560 306.3888416 560 297 Z" stroke-miterlimit="10"/></g><g transform="translate(-166,-62) scale(1,1)"><g><path fill="none" stroke="none"/><text fill="#000000" stroke="none" font-family="Roboto" font-size="13px" font-style="normal" font-weight="bold" text-decoration="none" x="584.117919921875" y="304">Edit Customer</text></g></g><g transform="translate(-166,-62) scale(1,1)"><path fill="none" stroke="#000000" d="M 233 273 L 559 293" stroke-miterlimit="10"/></g><g transform="translate(-166,-62) scale(1,1)"><path fill="none" stroke="#000000" d="M 243 442 L 578 315" stroke-miterlimit="10"/></g><g transform="translate(-166,-62) scale(1,1)"><path fill="none" stroke="#000000" d="M 243 456 L 807 464" stroke-miterlimit="10"/></g><g transform="translate(-166,-62) scale(1,1)"><path fill="none" stroke="#000000" d="M 243 458 L 815 514" stroke-miterlimit="10"/></g><g transform="translate(-166,-62) scale(1,1)"><path fill="none" stroke="#000000" d="M 243 461 L 823 559" stroke-miterlimit="10"/></g><g transform="translate(-166,-62) scale(1,1)"><path fill="none" stroke="#000000" d="M 243 463 L 671 561" stroke-miterlimit="10"/></g><g transform="translate(-166,-62) scale(1,1)"><path fill="none" stroke="#000000" d="M 243 467 L 512 559" stroke-miterlimit="10"/></g><g transform="translate(-166,-62) scale(1,1)"><path fill="none" stroke="#000000" d="M 243 448 L 607 377" stroke-miterlimit="10"/></g></g></svg>